<svg width="100" height="31" viewBox="0 0 100 31" fill="none" xmlns="http://www.w3.org/2000/svg">
<rect x="0.75" y="0.75" width="98.5" height="29.5" rx="7.25" stroke="#008DDA" stroke-width="1.5"/>
<path d="M15.8633 9.64453C14.4961 9.64453 13.4375 10.1602 12.6875 11.1914C11.9375 12.2148 11.5625 13.6445 11.5625 15.4805C11.5625 19.3008 12.9961 21.2109 15.8633 21.2109C17.0664 21.2109 18.5234 20.9102 20.2344 20.3086V23.3555C18.8281 23.9414 17.2578 24.2344 15.5234 24.2344C13.0312 24.2344 11.125 23.4805 9.80469 21.9727C8.48438 20.457 7.82422 18.2852 7.82422 15.457C7.82422 13.6758 8.14844 12.1172 8.79688 10.7812C9.44531 9.4375 10.375 8.41016 11.5859 7.69922C12.8047 6.98047 14.2305 6.62109 15.8633 6.62109C17.5273 6.62109 19.1992 7.02344 20.8789 7.82812L19.707 10.7812C19.0664 10.4766 18.4219 10.2109 17.7734 9.98438C17.125 9.75781 16.4883 9.64453 15.8633 9.64453ZM31.9297 24L31.2383 22.2188H31.1445C30.543 22.9766 29.9219 23.5039 29.2812 23.8008C28.6484 24.0898 27.8203 24.2344 26.7969 24.2344C25.5391 24.2344 24.5469 23.875 23.8203 23.1562C23.1016 22.4375 22.7422 21.4141 22.7422 20.0859C22.7422 18.6953 23.2266 17.6719 24.1953 17.0156C25.1719 16.3516 26.6406 15.9844 28.6016 15.9141L30.875 15.8438V15.2695C30.875 13.9414 30.1953 13.2773 28.8359 13.2773C27.7891 13.2773 26.5586 13.5938 25.1445 14.2266L23.9609 11.8125C25.4688 11.0234 27.1406 10.6289 28.9766 10.6289C30.7344 10.6289 32.082 11.0117 33.0195 11.7773C33.957 12.543 34.4258 13.707 34.4258 15.2695V24H31.9297ZM30.875 17.9297L29.4922 17.9766C28.4531 18.0078 27.6797 18.1953 27.1719 18.5391C26.6641 18.8828 26.4102 19.4062 26.4102 20.1094C26.4102 21.1172 26.9883 21.6211 28.1445 21.6211C28.9727 21.6211 29.6328 21.3828 30.125 20.9062C30.625 20.4297 30.875 19.7969 30.875 19.0078V17.9297ZM45.4297 10.6523C45.9141 10.6523 46.3164 10.6875 46.6367 10.7578L46.3672 14.1094C46.0781 14.0312 45.7266 13.9922 45.3125 13.9922C44.1719 13.9922 43.2812 14.2852 42.6406 14.8711C42.0078 15.457 41.6914 16.2773 41.6914 17.332V24H38.1172V10.8984H40.8242L41.3516 13.1016H41.5273C41.9336 12.3672 42.4805 11.7773 43.168 11.332C43.8633 10.8789 44.6172 10.6523 45.4297 10.6523ZM53.1641 24.2344C51.625 24.2344 50.4141 23.6367 49.5312 22.4414C48.6562 21.2461 48.2188 19.5898 48.2188 17.4727C48.2188 15.3242 48.6641 13.6523 49.5547 12.457C50.4531 11.2539 51.6875 10.6523 53.2578 10.6523C54.9062 10.6523 56.1641 11.293 57.0312 12.5742H57.1484C56.9688 11.5977 56.8789 10.7266 56.8789 9.96094V5.76562H60.4648V24H57.7227L57.0312 22.3008H56.8789C56.0664 23.5898 54.8281 24.2344 53.1641 24.2344ZM54.418 21.3867C55.332 21.3867 56 21.1211 56.4219 20.5898C56.8516 20.0586 57.0859 19.1562 57.125 17.8828V17.4961C57.125 16.0898 56.9062 15.082 56.4688 14.4727C56.0391 13.8633 55.3359 13.5586 54.3594 13.5586C53.5625 13.5586 52.9414 13.8984 52.4961 14.5781C52.0586 15.25 51.8398 16.2305 51.8398 17.5195C51.8398 18.8086 52.0625 19.7773 52.5078 20.4258C52.9531 21.0664 53.5898 21.3867 54.418 21.3867ZM64.0508 7.51172C64.0508 6.34766 64.6992 5.76562 65.9961 5.76562C67.293 5.76562 67.9414 6.34766 67.9414 7.51172C67.9414 8.06641 67.7773 8.5 67.4492 8.8125C67.1289 9.11719 66.6445 9.26953 65.9961 9.26953C64.6992 9.26953 64.0508 8.68359 64.0508 7.51172ZM67.7773 24H64.2031V10.8984H67.7773V24ZM82.3086 24L81.0664 19.9219H74.8203L73.5781 24H69.6641L75.7109 6.79688H80.1523L86.2227 24H82.3086ZM80.1992 16.875C79.0508 13.1797 78.4023 11.0898 78.2539 10.6055C78.1133 10.1211 78.0117 9.73828 77.9492 9.45703C77.6914 10.457 76.9531 12.9297 75.7344 16.875H80.1992ZM87.957 7.51172C87.957 6.34766 88.6055 5.76562 89.9023 5.76562C91.1992 5.76562 91.8477 6.34766 91.8477 7.51172C91.8477 8.06641 91.6836 8.5 91.3555 8.8125C91.0352 9.11719 90.5508 9.26953 89.9023 9.26953C88.6055 9.26953 87.957 8.68359 87.957 7.51172ZM91.6836 24H88.1094V10.8984H91.6836V24Z" fill="#008DDA"/>
</svg>
