<svg width="32" height="32" viewBox="0 0 32 32" fill="none" xmlns="http://www.w3.org/2000/svg">
<path d="M15.858 10.0255C14.3063 5.41439 9.65023 3.10672 5.99249 4.32061C2.84839 5.36292 1.05972 8.79869 1.08224 11.7122C1.09618 13.843 2.0838 15.4879 3.26015 17.0825C5.22361 19.7419 9.05079 24.071 16.0532 28C22.7371 24.0441 26.4752 19.7827 28.4558 17.0825C29.6354 15.4676 30.6209 13.8344 30.6348 11.7122C30.6531 8.82872 28.8848 5.36828 25.7246 4.32061C22.0668 3.10672 17.4107 5.41118 15.8591 10.0255" fill="#490028"/>
<g opacity="0.21">
<path d="M15.777 10.0255C14.2243 5.41439 9.56818 3.10672 5.91151 4.32061C2.76634 5.36292 0.978744 8.79869 1.00019 11.7122C1.0152 13.843 2.00284 15.4879 3.17919 17.0825C5.14157 19.7419 8.96981 24.071 15.9711 28C22.6561 24.0441 26.3943 19.7827 28.3749 17.0825C29.5544 15.4676 30.5399 13.8344 30.5538 11.7122C30.5721 8.82872 28.8038 5.36828 25.6436 4.32061C21.9859 3.10672 17.3298 5.41118 15.7781 10.0255" fill="white"/>
</g>
<path d="M10.0584 21.3022C6.49613 20.4743 4.22813 18.1924 3.26088 17.0825C2.94351 16.5141 2.81296 15.8602 2.88771 15.2135C3.05392 13.9963 3.98901 13.2725 4.54556 12.8414C5.12341 12.4078 5.77844 12.0879 6.47577 11.8988C7.52559 11.6104 8.3738 11.6908 9.09334 11.7659C10.7083 11.9342 11.8868 12.4318 12.8283 12.8382C13.7934 13.2554 14.5773 13.7111 16.145 14.6247C17.3514 15.326 17.8029 15.6424 18.872 16.1571C20.1223 16.7598 20.7722 16.9388 21.2794 17.0364C22.5094 17.2713 23.0541 17.0504 23.1024 17.2016C23.3533 17.9951 16.8635 22.885 10.0584 21.3022Z" fill="#AA3535"/>
<path d="M3.26154 17.0825C3.79771 17.801 4.52475 18.7221 5.44696 19.7408C6.72219 21.1332 8.09737 22.4306 9.56153 23.6227C11.5866 25.2784 13.7602 26.7437 16.0545 28C18.6637 26.4783 21.1112 24.6951 23.3593 22.678C26.1989 20.1226 27.7559 18.0358 28.1409 17.5071C28.8325 16.5635 29.3591 15.7314 29.7258 15.118C29.0234 14.5818 27.8395 13.8312 26.2943 13.68C22.2301 13.2768 20.6806 17.4954 14.3635 19.4245C12.6874 19.9371 9.96687 20.7263 7.01794 19.6454C5.57954 19.1025 4.29166 18.2238 3.26154 17.0825Z" fill="#DB4545"/>
</svg>
