<svg width="32" height="32" viewBox="0 0 32 32" fill="none" xmlns="http://www.w3.org/2000/svg">
<path d="M15.8576 10.0249C14.306 5.41396 9.65005 3.10743 5.99241 4.32021C2.8484 5.36357 1.05978 8.79924 1.0823 11.7127C1.09624 13.8434 2.08383 15.4883 3.26015 17.0828C5.22355 19.7422 9.05062 24.0711 16.0528 28C22.7365 24.0443 26.4746 19.7818 28.4551 17.0828C29.6347 15.4679 30.6201 13.8337 30.6341 11.7127C30.6523 8.82927 28.884 5.36893 25.7239 4.32021C22.0663 3.10743 17.4103 5.41075 15.8587 10.0249" fill="#490028"/>
<g opacity="0.21">
<path d="M15.7767 10.0249C14.224 5.41396 9.568 3.10743 5.91143 4.32021C2.76635 5.36357 0.978806 8.79924 1.00025 11.7127C1.01526 13.8434 2.00287 15.4883 3.17919 17.0828C5.14151 19.7422 8.96965 24.0711 15.9708 28C22.6555 24.0443 26.3936 19.7818 28.3741 17.0828C29.5537 15.4679 30.5391 13.8337 30.5531 11.7127C30.5713 8.82927 28.8031 5.36893 25.643 4.32021C21.9853 3.10743 17.3294 5.41075 15.7777 10.0249" fill="white"/>
</g>
<path d="M9.97484 21.2798C6.41371 20.452 4.14577 18.1701 3.17855 17.0603C2.8627 16.4914 2.734 15.8374 2.81074 15.1913C2.97588 13.9742 3.912 13.2504 4.46853 12.8193C5.04594 12.3849 5.70109 12.065 6.39868 11.8767C7.44847 11.5883 8.29667 11.6687 9.01512 11.7438C10.6311 11.9121 11.8085 12.4097 12.751 12.8161C13.7161 13.2321 14.5 13.6889 16.0677 14.6015C17.273 15.3038 17.7255 15.6202 18.7946 16.1349C20.0449 16.7375 20.6947 16.9166 21.2008 17.0131C22.4318 17.249 22.9766 17.0281 23.0238 17.1793C23.2693 17.9718 16.7797 22.8626 9.97484 21.2798Z" fill="#AA3535"/>
<path d="M3.26154 17.0828C4.26617 18.4094 5.35276 19.6718 6.51493 20.8627C7.39962 21.7741 8.33016 22.6399 9.30293 23.4566C10.3824 24.3406 11.51 25.1639 12.6807 25.9229C13.5654 26.5138 14.6966 27.2312 16.051 27.9957C16.5142 27.7234 17.2723 27.2655 18.1816 26.6618C18.1816 26.6618 22.8076 23.5853 26.9242 19.0141C27.6782 18.164 28.3702 17.261 28.9948 16.3118C29.813 15.0723 30.0671 14.4267 30.2119 14.0182C30.4656 13.2733 30.6073 12.4949 30.6322 11.7084C28.1659 10.2286 26.1832 9.99273 24.8793 10.0303C18.0058 10.2168 15.0687 18.2581 8.18021 18.3546C6.05383 18.3889 4.31883 17.6479 3.26154 17.0828Z" fill="#DB4545"/>
</svg>
