<svg width="32" height="32" viewBox="0 0 32 32" fill="none" xmlns="http://www.w3.org/2000/svg">
<path d="M15.8576 10.0249C14.306 5.41396 9.64999 3.10743 5.99235 4.32021C2.84834 5.36249 1.05972 8.79817 1.08224 11.7116C1.09618 13.8434 2.08377 15.4883 3.26009 17.0818C5.22349 19.7411 9.05057 24.0711 16.0527 28C22.7364 24.0443 26.4745 19.7818 28.4551 17.0818C29.6346 15.4733 30.6201 13.8337 30.634 11.7116C30.6522 8.82819 28.884 5.36893 25.7239 4.32021C22.0662 3.10743 17.4103 5.41074 15.8586 10.0249" fill="#490028"/>
<g opacity="0.21">
<path d="M15.7766 10.0249C14.2239 5.41396 9.56794 3.10743 5.91137 4.32021C2.76629 5.36249 0.978745 8.79817 1.00019 11.7116C1.0152 13.8434 2.00281 15.4883 3.17913 17.0818C5.14145 19.7411 8.96959 24.0711 15.9707 28C22.6555 24.0443 26.3935 19.7818 28.3741 17.0818C29.5536 15.4733 30.5391 13.8337 30.553 11.7116C30.5712 8.82819 28.803 5.36893 25.6429 4.32021C21.9853 3.10743 17.3293 5.41074 15.7777 10.0249" fill="white"/>
</g>
<path d="M13.8635 23.788C13.8817 23.5843 14.627 23.7022 16.2225 23.3205C18.8797 22.6846 19.4952 21.712 21.123 21.8364C21.6248 21.875 22.4098 22.0316 23.3598 22.6771C22.2777 23.685 20.9444 24.3832 19.4995 24.6984C16.644 25.2957 13.8259 24.1869 13.8635 23.788Z" fill="#AA3535"/>
<path d="M8.39471 22.6288C9.76897 23.8236 11.2146 24.9337 12.7236 25.953C13.8753 26.7315 14.9937 27.4092 16.0542 28C17.4045 27.2071 18.7134 26.3456 19.9756 25.419C21.2388 24.4914 22.3648 23.5649 23.3588 22.6771C21.271 23.6872 19.6175 23.7944 18.5023 23.7108C14.761 23.4298 12.5499 20.6568 9.8863 21.6337C9.32 21.8478 8.8099 22.1882 8.39471 22.6288Z" fill="#DB4545"/>
</svg>
